<?xml version="1.0" standalone="no"?>
<!DOCTYPE svg PUBLIC "-//W3C//DTD SVG 20010904//EN"
 "http://www.w3.org/TR/2001/REC-SVG-20010904/DTD/svg10.dtd">
<svg version="1.0" xmlns="http://www.w3.org/2000/svg"
 width="275.000000pt" height="275.000000pt" viewBox="0 0 275.000000 275.000000"
 preserveAspectRatio="xMidYMid meet">
<metadata>
Created by potrace 1.12, written by Peter Selinger 2001-2015
</metadata>
<g transform="translate(0.000000,275.000000) scale(0.100000,-0.100000)"
fill="#000000" stroke="none">
<path d="M1365 2617 c-49 -5 -105 -9 -122 -9 -41 1 -45 -25 -5 -34 15 -4 43
-15 62 -26 19 -10 48 -18 65 -18 94 0 309 -74 435 -150 45 -27 87 -47 93 -43
6 3 7 1 3 -5 -8 -13 28 -35 39 -24 5 4 5 2 2 -4 -4 -7 0 -17 8 -24 8 -7 15 -9
15 -4 0 4 7 -1 15 -12 8 -10 15 -15 15 -11 0 15 68 -63 110 -128 126 -194 118
-379 -24 -534 -40 -43 -120 -81 -172 -81 -58 0 -130 27 -158 60 -34 41 -42
114 -21 185 32 113 144 180 265 157 58 -10 90 -2 90 22 0 26 -67 111 -123 156
-65 53 -143 86 -245 106 -185 35 -369 -1 -521 -103 -54 -36 -73 -43 -113 -43
-27 0 -62 7 -78 15 -27 14 -30 21 -30 61 0 62 30 115 90 158 50 36 59 49 39
61 -6 4 -8 14 -5 22 8 21 -3 36 -17 25 -7 -5 -42 -12 -78 -15 -41 -4 -80 -14
-100 -26 -19 -12 -40 -21 -47 -21 -25 0 -169 -61 -226 -95 -32 -19 -54 -29
-48 -22 6 7 38 28 71 47 65 36 83 59 29 37 -69 -29 -186 -113 -259 -186 -99
-100 -186 -250 -237 -411 -36 -113 -68 -430 -43 -430 4 0 11 -28 15 -62 9 -90
49 -230 91 -323 37 -82 150 -258 185 -290 21 -19 27 -45 9 -45 -5 0 -7 -4 -4
-10 8 -12 42 -13 49 -1 4 5 -3 31 -15 58 -63 146 -91 297 -91 493 0 267 59
446 190 579 88 89 149 114 277 115 80 1 95 -2 138 -26 26 -15 44 -22 41 -16
-4 7 -2 8 5 4 24 -15 61 -105 61 -148 0 -85 -65 -180 -147 -215 -43 -17 -132
-17 -176 2 -37 15 -87 67 -87 91 0 24 -30 75 -40 69 -6 -4 -10 4 -10 17 0 47
-45 64 -68 27 -77 -123 -44 -378 72 -551 58 -87 184 -209 254 -246 34 -18 67
-30 72 -27 6 4 9 3 8 -2 -2 -4 1 -8 5 -8 4 0 17 -15 29 -33 16 -26 19 -44 16
-87 -5 -62 -31 -98 -85 -121 -48 -21 -81 -17 -151 16 -35 17 -70 30 -78 30
-21 0 29 -73 121 -178 22 -25 55 -61 73 -80 17 -19 32 -38 32 -42 0 -14 122
-92 203 -130 141 -66 230 -85 397 -84 125 0 159 4 250 28 206 54 401 154 557
284 118 99 250 286 299 423 17 49 6 70 -22 42 -17 -17 -18 -17 -10 2 23 61 12
69 -13 10 -134 -319 -347 -523 -682 -656 -143 -57 -341 -96 -351 -70 -1 4 -48
11 -103 15 -101 6 -143 13 -224 35 -72 20 -42 20 49 0 180 -39 365 -22 589 56
125 44 180 70 286 140 188 122 316 271 398 459 21 49 37 90 35 91 -2 2 -28
-28 -58 -67 -204 -261 -545 -450 -812 -450 -102 0 -180 17 -251 55 -103 54
-147 132 -147 259 0 112 35 172 125 214 61 29 125 30 182 5 23 -11 44 -17 46
-14 10 10 48 -79 54 -125 8 -71 -11 -124 -67 -185 -45 -49 -49 -58 -40 -81 5
-14 17 -26 25 -26 9 0 27 -7 41 -16 75 -50 270 59 385 215 92 125 142 289 137
451 -3 99 16 150 66 181 65 40 171 15 183 -42 3 -16 9 -31 13 -34 16 -10 69
169 89 306 35 228 -76 516 -277 718 -115 117 -260 219 -382 269 -85 34 -227
71 -305 77 -38 3 -86 7 -105 9 -19 2 -75 -1 -125 -7z m-815 -432 c-7 -9 -15
-13 -19 -10 -3 3 1 10 9 15 21 14 24 12 10 -5z m-30 -19 c0 -2 -8 -10 -17 -17
-16 -13 -17 -12 -4 4 13 16 21 21 21 13z m953 -398 c-4 -18 -8 -76 -8 -128 0
-83 3 -102 28 -151 15 -31 43 -73 62 -93 19 -21 35 -42 35 -47 0 -5 4 -9 9 -9
4 0 25 -16 45 -35 21 -19 42 -32 48 -29 7 4 8 2 4 -4 -7 -11 27 -36 37 -26 3
3 8 0 13 -7 5 -8 3 -10 -7 -4 -8 4 -2 -3 13 -16 45 -41 72 -112 62 -166 -3
-18 -12 -33 -19 -33 -7 0 -37 27 -66 60 -87 98 -188 150 -292 150 -52 0 -168
-35 -246 -74 -26 -14 -64 -28 -84 -31 -39 -8 -127 11 -127 26 0 4 19 13 43 19
153 39 246 108 297 222 10 24 29 99 40 167 26 147 29 158 70 205 40 45 54 46
43 4z m204 -80 c-3 -8 -6 -5 -6 6 -1 11 2 17 5 13 3 -3 4 -12 1 -19z m-1335
-643 c4 -75 3 -101 -2 -70 -8 51 -13 202 -6 194 2 -2 6 -58 8 -124z m935 -322
c-3 -10 -5 -4 -5 12 0 17 2 24 5 18 2 -7 2 -21 0 -30z m-252 -457 c78 -52 79
-63 1 -14 -64 40 -104 74 -152 129 -30 35 -26 33 22 -13 32 -31 90 -77 129
-102z m125 -66 c19 -11 31 -19 27 -20 -12 0 -77 28 -77 34 0 10 14 6 50 -14z"/>
<path d="M2490 2051 c5 -11 15 -23 21 -27 6 -3 3 5 -6 20 -20 30 -30 35 -15 7z"/>
<path d="M2540 1964 c6 -14 14 -33 19 -43 22 -40 52 -181 52 -246 1 -127 -54
-366 -109 -470 l-16 -30 -8 25 c-6 20 -7 18 -3 -9 7 -44 13 -50 30 -28 8 12
15 14 20 8 13 -22 27 -10 49 42 56 126 71 202 70 362 0 137 -3 158 -28 235
-27 82 -71 180 -81 180 -2 0 0 -12 5 -26z"/>
</g>
</svg>
